<?xml version="1.0" encoding="UTF-8"?>
<!-- Generated by Pixelmator Pro 3.7 -->
<svg width="512" height="512" viewBox="0 0 512 512"
    xmlns="http://www.w3.org/2000/svg">
    <path fill="#1800ad" stroke="none" d="M 309 0 C 313.09 1.82 315.31 4.93 317 9 C 318.2 16.33 316.61 23.36 314.85 30.44 C 314.51 31.81 314.51 31.81 314.17 33.21 C 313.46 36.14 312.73 39.07 312 42 C 311.77 42.94 311.53 43.89 311.29 44.86 C 309.54 51.89 307.77 58.92 305.99 65.95 C 305.42 68.21 304.85 70.48 304.28 72.74 C 303.08 77.47 301.89 82.21 300.69 86.94 C 299.19 92.86 297.7 98.78 296.2 104.71 C 295.03 109.36 293.85 114.02 292.68 118.67 C 292.1 120.97 291.52 123.27 290.94 125.57 C 287.88 137.7 284.8 149.81 281.65 161.91 C 281.12 163.93 280.6 165.95 280.07 167.98 C 279.09 171.73 278.11 175.49 277.12 179.24 C 276.68 180.9 276.25 182.57 275.82 184.23 C 275.62 184.98 275.42 185.73 275.21 186.5 C 274.11 190.75 274.11 190.75 275 195 C 275.62 195 276.24 194.99 276.87 194.99 C 291.92 194.93 306.97 194.88 322.02 194.84 C 329.3 194.83 336.57 194.81 343.85 194.77 C 350.19 194.74 356.54 194.72 362.88 194.72 C 366.24 194.71 369.6 194.7 372.96 194.68 C 376.71 194.66 380.46 194.66 384.21 194.66 C 385.32 194.65 386.43 194.64 387.57 194.63 C 393.12 194.65 397.26 194.77 402 198 C 406.76 203.27 407.49 206.73 407.39 213.73 C 406.72 219.36 404.06 223.32 401 228 C 400.19 229.27 399.38 230.53 398.57 231.8 C 396.72 234.69 394.86 237.56 392.98 240.43 C 390.02 244.95 387.13 249.5 384.25 254.06 C 383.76 254.84 383.27 255.62 382.76 256.42 C 378.01 263.96 373.29 271.52 368.57 279.08 C 363.23 287.64 357.85 296.18 352.45 304.71 C 349.97 308.64 347.48 312.57 345 316.5 C 342.04 321.19 339.07 325.88 336.11 330.57 C 329.94 340.32 323.81 350.1 317.71 359.88 C 313.49 366.64 309.23 373.36 304.94 380.06 C 299.54 388.51 294.3 397.04 289.11 405.61 C 285.01 412.37 280.84 419.07 276.6 425.74 C 272.62 432.01 268.68 438.32 264.75 444.62 C 258.83 454.11 252.84 463.55 246.79 472.96 C 243.68 477.8 240.59 482.64 237.54 487.52 C 237 488.37 236.46 489.23 235.91 490.11 C 234.93 491.68 233.95 493.24 232.98 494.81 C 224.34 508.62 224.34 508.62 219 512 C 216.1 512.4 213.53 512.62 210.62 512.62 C 209.48 512.63 209.48 512.63 208.3 512.63 C 204.81 512.52 202.59 512.37 199.59 510.5 C 198.08 508.72 196.99 507.1 196 505 C 195.67 504.34 195.34 503.68 195 503 C 193.29 487.34 199.9 470.03 203.71 455.03 C 204.27 452.78 204.84 450.53 205.41 448.28 C 206.6 443.56 207.8 438.84 208.99 434.12 C 210.48 428.25 211.96 422.38 213.45 416.51 C 221.83 383.3 230.37 350.14 239 317 C 238.37 317 237.74 317.01 237.1 317.01 C 221.8 317.07 206.5 317.12 191.2 317.16 C 183.8 317.17 176.4 317.19 169 317.23 C 162.55 317.26 156.11 317.28 149.66 317.28 C 146.24 317.29 142.83 317.3 139.41 317.32 C 135.6 317.34 131.79 317.34 127.97 317.34 C 126.28 317.36 126.28 317.36 124.55 317.37 C 118.97 317.35 114.77 317.26 110 314 C 105.48 308.99 104.51 305.76 104.61 299.11 C 105.88 289.01 113.51 279.89 119.01 271.55 C 122.05 266.95 125 262.29 127.94 257.62 C 128.44 256.83 128.93 256.04 129.45 255.23 C 130.46 253.62 131.47 252.01 132.48 250.41 C 134.99 246.44 137.49 242.47 140 238.5 C 141 236.92 142 235.33 143 233.75 C 149 224.25 149 224.25 150.5 221.88 C 151.5 220.29 152.5 218.7 153.51 217.11 C 155.97 213.22 158.43 209.32 160.89 205.43 C 167.11 195.61 173.28 185.77 179.43 175.91 C 183.31 169.7 187.21 163.5 191.12 157.31 C 195.25 150.8 199.33 144.25 203.38 137.69 C 209.6 127.6 215.96 117.61 222.33 107.62 C 229.41 96.51 236.41 85.36 243.38 74.19 C 248.77 65.53 254.22 56.91 259.71 48.32 C 262.82 43.44 265.91 38.55 268.96 33.64 C 269.63 32.57 270.29 31.51 270.97 30.41 C 272.24 28.37 273.5 26.33 274.76 24.29 C 290.99 -1.84 290.99 -1.84 309 0 Z"/>
</svg>
