<svg xmlns="http://www.w3.org/2000/svg" version="1.1" xmlns:xlink="http://www.w3.org/1999/xlink" width="512" height="512"><svg xmlns="http://www.w3.org/2000/svg" width="512" height="512">
  <path fill="#1800AD" d="m279 3-3-1c-20-5-43-2-62 8l-2 2c-10 6-19 13-26 21l-2 3a86 86 0 0 0-21 56v2l-23-10c-20-6-45-4-64 6l-2 1c-8 4-15 8-21 14l-2 3c-8 8-15 16-20 26a95 95 0 0 0-3 74c7 18 21 39 39 47l2 1v1h-2a94 94 0 0 0-37 119 94 94 0 0 0 131 44l2-1a91 91 0 0 0 90 94l3-1c9 0 17 0 26-3h2a94 94 0 0 0 66-88v-2a91 91 0 0 0 93 1c17-10 30-24 39-41 11-24 12-49 3-74-7-18-21-39-39-47l-2-1v-1h2l19-15 1-2c16-17 25-39 25-62v-3a74 74 0 0 0-11-42l-1-3a90 90 0 0 0-48-41l-2-1-4-1c-24-8-50-4-73 7l-2 1c0-17-4-34-13-49a96 96 0 0 0-58-42Zm53 55 2 2c8 7 13 18 15 28l1 4-3 5-8 4-9 5-5 3-2 1-5 3c-14 8-25 17-30 33-3 14 0 27 7 39 7 10 17 16 28 19l12 1h2c11 0 21-7 30-12l3-2 14-9 3-1 5-3c12-8 26-10 40-8 11 4 21 10 28 21 7 12 9 24 5 37-4 12-10 19-19 26l-3 1h-2l-3-1-2-1-6-4-2-1-14-8c-15-9-29-14-46-11a248 248 0 0 0-20 11c-9 8-14 21-14 33 0 11 3 22 11 31l2 4 4 2a685 685 0 0 1 27 16c35 20 35 20 41 40 3 13 1 25-6 37l-4 5-1 2c-7 7-17 13-27 14h-8c-6 0-11-1-16-3l-4-2-3-2-1-11v-16a1071 1071 0 0 0 0-18c0-13-4-23-13-33-10-9-22-13-35-13-11 0-20 4-28 11l-2 2c-7 6-12 16-14 25v48c0 18-6 31-19 44-11 9-25 10-39 8-8-1-13-5-19-10l-2-2c-8-7-13-18-14-28l-1-4 3-4 2-1 3-1 3-2 6-4 10-5c17-10 28-18 35-36 3-14 0-27-8-39-6-10-17-17-28-19-15-1-26 1-39 9l-5 3-14 8c-17 10-31 17-50 13-12-2-22-10-28-19-7-13-9-26-5-39 2-6 5-10 8-15l3-3c3-3 6-7 11-9l11 6 1 1 4 2 9 5 2 1a638 638 0 0 0 17 9c11 5 24 5 35 2 12-5 20-12 25-24 5-11 7-23 3-35-9-20-24-27-42-37a1737 1737 0 0 1-12-7c-14-8-24-19-29-34v-2c-2-11-1-23 5-33l5-6 2-2c8-9 18-14 30-14 10 0 19 1 27 7l1 2v10a438 438 0 0 0 0 19v14c0 13 5 24 14 34 11 9 23 13 38 12 9-1 18-5 25-12l2-2c5-5 8-11 11-18l1-2 1-15a264 264 0 0 1 0-23v-15c0-15 4-27 14-39 17-15 41-19 60-4l2 1Z"></path>
</svg><style>@media (prefers-color-scheme: light) { :root { filter: none; } }
@media (prefers-color-scheme: dark) { :root { filter: none; } }
</style></svg>